P1
# une ligne image = une ligne du fichier
5 5
01100
00101
00110
00100
00000