P1
# une ligne image = une ligne du fichier
10 10
0110001100
0010101100
0110001100
0110000110
0010000000
0011001000
0011001110
0011001110
0010000100
0010000000
