P1
# une ligne image = une ligne du fichier
8 8
00000000
01100110
01100110
00000000
01000010
01100110
00111100
00000000